<svg width="128" height="128" viewBox="0 0 128 128" fill="none" xmlns="http://www.w3.org/2000/svg">
<rect x="0.5" y="0.5" width="127" height="127" rx="11.5" fill="#191919" stroke="white"/>
<path fill-rule="evenodd" clip-rule="evenodd" d="M59.8667 15.0132C70.1998 15.0132 78.4671 14.3188 87.0774 22.9999C91.8996 27.861 95 34.8055 95 42.0976V86.1955C95 101.126 82.9443 113.279 68.1333 113.279C57.4553 113.279 49.1888 113.974 40.9226 105.293C35.7555 100.432 33 93.834 33 86.1951V42.0972C33 27.1662 45.0557 15.0132 59.8667 15.0132V15.0132ZM62.6222 20.9165H65.0335V31.3332C69.1669 32.0276 67.789 37.9308 67.789 44.5277C67.789 46.2642 66.7553 47.6531 65.0335 47.9998V61.542H62.6222V47.9998C58.4888 46.9577 59.8667 41.0553 59.8667 34.4576C59.8667 33.0687 60.9004 31.3321 62.6222 31.3321V20.9154V20.9165Z" fill="white"/>
<path d="M77.4881 83.5377C78.8486 84.5121 78.8486 86.5351 77.4881 87.5095L56.8649 102.279C55.2485 103.437 53 102.281 53 100.293L53 70.7538C53 68.7656 55.2485 67.6103 56.8649 68.7679L77.4881 83.5377Z" fill="#191919"/>
</svg>
