<svg width="129" height="129" viewBox="0 0 129 129" fill="none" xmlns="http://www.w3.org/2000/svg">
<circle cx="64.6758" cy="64.6758" r="63.5" fill="#191919" stroke="white"/>
<path d="M79.8749 92.9094C79.8749 97.0436 83.2466 100.395 87.4059 100.395C91.5652 100.395 94.937 97.0436 94.937 92.9094V25.5398C94.937 21.4057 91.5652 18.0543 87.4059 18.0543C83.2466 18.0543 79.8749 21.4057 79.8749 25.5398V92.9094Z" fill="white"/>
<path d="M84.589 111.833C85.7916 113.495 88.2672 113.495 89.4698 111.833L106.011 88.9763C106.731 87.9803 106.02 86.587 104.791 86.587H69.2682C68.0388 86.587 67.3273 87.9803 68.048 88.9763L84.589 111.833Z" fill="white"/>
<path d="M36.9478 38.224C36.9478 34.0899 40.3196 30.7385 44.4789 30.7385C48.6382 30.7385 52.0099 34.0899 52.0099 38.224V105.594C52.0099 109.728 48.6382 113.079 44.4789 113.079C40.3196 113.079 36.9478 109.728 36.9478 105.594V38.224Z" fill="white"/>
<path d="M41.6619 19.3006C42.8645 17.6388 45.3401 17.6388 46.5427 19.3006L63.0837 42.1572C63.8044 43.1531 63.0928 44.5465 61.8635 44.5465H26.3412C25.1118 44.5465 24.4002 43.1531 25.121 42.1572L41.6619 19.3006Z" fill="white"/>
</svg>
